<svg version="1.2" xmlns="http://www.w3.org/2000/svg" viewBox="0 0 5977 3897" width="5977" height="3897"><defs><linearGradient id="P" gradientUnits="userSpaceOnUse"/><linearGradient id="g1" x1="517.5" y1="581" x2="-141.9" y2="1725" href="#P"><stop stop-color="#b0cb1f"/><stop offset="1" stop-color="#009846"/></linearGradient></defs><style>.a{fill:none}.b{fill:url(#g1)}.c{fill:#898989}</style><path class="a" d="m-505-736h6985v5397.5h-6985z"/><path fill-rule="evenodd" class="b" d="m2101.8 352.8l481.9-0.1v2371.3l-1833-1066.8v-439.7l1351 801.2zm-1432 735.3l1351.3 797.2v-439.7l-1833.3-1075.5v2371h482z"/><path fill-rule="evenodd" class="c" d="m5144.5 780v1942.5h-464.5v-1942.5l-1881.5 4v-432.3l2988.5 0.1v428.2zm-642.5 176.8v419.2h-1239v1346.5h-464.5v-1765.8c490.8 0 1212.8 0 1703.5 0z"/><path fill-rule="evenodd" class="c" d="m282.3 3573.8l-77.3-0.1v-490.2h491c20.7 0 40.5 4 59.5 12 19 8 35.5 19 49.5 32.7 14.2 14 25.5 30.3 34 48.8 8.5 18.2 12.7 38 12.7 58.7 0 21.3-4.2 41-13 59.5-8.7 18.5-20.5 34.5-35 48.5-14.7 14-31.7 24.8-51 32.8-19.5 7.7-39.5 11.5-60.2 11.5h-410.3zm411.6-261.5c10.9 0 21.2-2 30.9-6 9.5-4 18-9.5 25.5-16.3 7.3-7 13.3-15 18-24.2 4.8-9 7.3-19.3 7.8-30-0.5-10.5-3-20.3-7.8-29.5-4.7-9.3-10.7-17.3-18.5-24-7.5-6.8-16.2-12.3-26.2-16.3-9.8-4-20.3-6-31-6h-410.3v152.3zm951.5 261.5v-289.8c0-27.5 5.3-53.2 15.5-77.7 10.5-24.3 24.8-45.5 42.5-63.3 18-18 39-32.2 63.3-43 24-10.5 50-16 77.8-16h350.2v76.5h-350.3c-16.9 0-32.7 3.3-47.7 9.8-14.7 6.2-27.7 15.2-39 26.5-11 11.2-20 24.5-26.5 39.2-6.7 15-10 31-10 48v289.8zm1278.8 0v-491h78v491zm912.5-59.5c-19-19-33.8-40.8-44.5-65.3-10.5-24.5-15.8-51-15.8-79.2v-83.8c0-27.7 5.3-54.2 16.3-79 10.7-24.7 25.5-46.5 44-64.7 18.2-18.5 40-33 64.7-43.8 24.8-10.5 51.3-15.7 79.8-15.7h404.5v77.2h-404.5c-17.5 0-34 3.3-49.3 9.8-15.5 6.7-28.7 15.7-40 27.2-11.5 11.8-20.5 25.3-27.5 40.5-6.7 15.3-10.2 31.5-10.2 48.5v83.8c0 17 3.5 33 10 48.5 6.7 15.2 15.5 28.7 27 40.2 11.2 11.8 24.5 20.8 39.5 27.3 15.2 6.7 31.5 10 49 10h406v78h-404.5c-28.5 0-55-5.3-79.8-16-24.7-10.5-46.5-25-64.7-43.5zm1328.2-282.8c0-20.2 4.3-39.5 13-57.7 8.8-18.3 20.5-34 34.8-47.3 14.5-13.2 31.2-23.7 50.7-31.5 19.3-7.7 39.8-11.5 61-11.5h306.8c20.7 0 40.5 4 59.5 12 19 8 35.5 19 50 32.8 14.5 14 25.7 30.2 34.2 48.7 8.5 18.3 12.8 38 12.8 58.8 0 21.2-4.3 41-12.8 59.5-8.5 18.5-20 34.5-34.8 48.5-14.4 14-31.4 24.7-51 32.7-19.2 7.8-39.5 11.5-60.7 11.5h-387.8l0.1 57.5q6.3 24 30.7 38.3c16.5 9.5 34 14.2 53 14.2h450v75.8h-453.8c-18.2 0-36.4-2.8-54.7-8.5-18.2-5.8-34.7-14-49.7-24.8-14.8-11-27-24.2-36.5-39.7-9.3-15.5-14.3-33.3-14.8-53.3zm159.5-71.5c-8.5 0-17.7 1.8-27.2 5.5-9.8 3.8-19 9-27.5 15.3-8.5 6.5-15.3 14.2-20.8 23.5q-8.2 13.9-8.2 29.2v78h390.5c10.5 0 20.5-2 30.5-6 10-4 18.5-9.2 25.7-16 7.5-6.5 13.3-14.5 17.8-23.7 4.5-9 6.7-19.3 6.7-30 0-11-2.2-21-6.7-30.3-4.5-9-10.5-17.2-18.5-24-7.8-6.7-16.8-12.2-26.8-16-10.2-3.7-20.7-5.5-31.5-5.5z"/></svg>