<svg width="181" height="20" viewBox="0 0 181 20" fill="none" xmlns="http://www.w3.org/2000/svg">
    <path d="M20.33 17.5V0h5v2.5h2.5V5h2.5v2.5h2.5V0h5v17.5h-5v-5h-2.5V10h-2.5V7.5h-2.5v10h-5zm20 0V0h17.5v2.5h-12.5v5h10V10h-10v7.5h-5zm27.5 0v-15h-5V0h15v2.5h-5v15h-5z" fill="#000"/>
    <path d="M82.83 17.5V15h-2.5v-2.5h5V15h7.5v-5h-10V7.5h-2.5v-5h2.5V0h12.5v2.5h2.5V5h-5V2.5h-7.5v5h10V10h2.5v5h-2.5v2.5h-12.5zm20.001 0V15h-2.5v-2.5h2.5V10h10V7.5h-10V5h12.5v2.5h2.5v10h-15zm2.5-2.5h7.5v-2.5h-7.5V15zm17.5 2.5V15h5V2.5h-2.5V0h7.5v15h5v2.5h-15zm20 0V15h-2.5V7.5h2.5V5h12.5v2.5h2.5v5h-12.5V15h10v2.5h-12.5zm2.5-7.5h7.5V7.5h-7.5V10zm15 7.5V15h12.5v-2.5h-10V10h-2.5V7.5h2.5V5h12.5v2.5h-10V10h10v2.5h2.5V15h-2.5v2.5h-15z" fill="#04AB4E"/>
    <path d="M5.488 5.42H1.31V17.11h4.18V5.42z" fill="#0AAA4D"/>
    <path d="M5.042 5.844v10.842H1.755V5.844h3.287zm.893-.846H.863v12.534h5.072V4.998z" fill="#04AB4E"/>
    <path d="M11.94 2.999H7.842v14.11h4.098V2.999z" fill="#0AAA4D"/>
    <path d="M11.493 3.46V16.61H8.37V3.422h3.124v.038zm.974-.923H7.355V17.57h5.072V2.537h.04z" fill="#04AB4E"/>
    <path d="M18.432.5h-4.017v16.532h4.017V.5z" fill="#0AAA4D"/>
    <path d="M17.945 1v15.532h-2.962V1h2.962zM19 0h-5.113v17.532h5.072V0H19z" fill="#04AB4E"/>
</svg>
